<svg width="450" height="464" viewBox="0 0 450 464" fill="none" xmlns="http://www.w3.org/2000/svg">
<rect width="450" height="464" rx="50" fill="#1C1C1C"/>
<g filter="url(#filter0_d_0_1)">
<path d="M377.25 354.75C369.917 357.917 361.25 360.833 351.25 363.5C341.25 366.167 330.667 367.5 319.5 367.5C299 367.5 283.917 364.5 274.25 358.5C264.583 352.333 258 343.583 254.5 332.25H253C247.333 337.917 241.833 342.75 236.5 346.75C231.333 350.75 225.75 354.167 219.75 357C211.917 360.667 204.333 363.333 197 365C189.833 366.833 179.75 367.75 166.75 367.75C147.417 367.75 130.917 362.083 117.25 350.75C103.583 339.25 96.75 324.083 96.75 305.25C96.75 294.417 98.25 285.25 101.25 277.75C104.25 270.083 108.5 263.333 114 257.5C119 252.167 124.75 247.75 131.25 244.25C137.917 240.75 145.167 237.5 153 234.5C168 229 186 223.333 207 217.5C228 211.5 243.333 206.167 253 201.5V177.5C253 173.333 252.667 167.833 252 161C251.333 154.167 249.917 148.417 247.75 143.75C245.417 138.417 241.75 133.917 236.75 130.25C231.75 126.583 225.167 124.75 217 124.75C209.667 124.75 203.5 125.833 198.5 128C193.667 130 189.75 132.083 186.75 134.25C187.25 137.583 188.667 142.667 191 149.5C193.333 156.333 194.5 162.917 194.5 169.25C194.5 172.083 193.75 175.667 192.25 180C190.75 184.167 188.583 187.5 185.75 190C181.917 193.333 177.583 195.917 172.75 197.75C168.083 199.583 160.833 200.5 151 200.5C137 200.5 126.417 197.167 119.25 190.5C112.083 183.667 108.5 174.833 108.5 164C108.5 154.667 112.167 146.333 119.5 139C127 131.5 136.083 125.333 146.75 120.5C157.25 115.5 169.333 111.667 183 109C196.667 106.167 209.333 104.75 221 104.75C237.167 104.75 252 105.75 265.5 107.75C279 109.583 291.167 113.5 302 119.5C312.333 125.333 320.5 133.833 326.5 145C332.667 156 335.75 170.417 335.75 188.25C335.75 207.083 335.333 229.417 334.5 255.25C333.833 281.083 333.5 298.083 333.5 306.25C333.5 313.75 334.583 319.667 336.75 324C339.083 328.333 342.583 331.583 347.25 333.75C350.083 335.083 354.5 335.917 360.5 336.25C366.667 336.417 372.25 336.5 377.25 336.5V354.75ZM253 224.5C243.667 227.667 234.417 231.333 225.25 235.5C216.083 239.5 208.583 243.75 202.75 248.25C196.583 252.917 191.75 258.917 188.25 266.25C184.75 273.417 183 281.917 183 291.75C183 304.75 185.917 314.167 191.75 320C197.75 325.833 205.083 328.75 213.75 328.75C222.917 328.75 230.417 326.917 236.25 323.25C242.25 319.417 247.5 314.75 252 309.25L253 224.5Z" fill="white"/>
</g>
<defs>
<filter id="filter0_d_0_1" x="60.75" y="65.75" width="366.5" height="349" filterUnits="userSpaceOnUse" color-interpolation-filters="sRGB">
<feFlood flood-opacity="0" result="BackgroundImageFix"/>
<feColorMatrix in="SourceAlpha" type="matrix" values="0 0 0 0 0 0 0 0 0 0 0 0 0 0 0 0 0 0 127 0" result="hardAlpha"/>
<feOffset dx="7" dy="4"/>
<feGaussianBlur stdDeviation="21.5"/>
<feComposite in2="hardAlpha" operator="out"/>
<feColorMatrix type="matrix" values="0 0 0 0 0 0 0 0 0 0 0 0 0 0 0 0 0 0 0.25 0"/>
<feBlend mode="normal" in2="BackgroundImageFix" result="effect1_dropShadow_0_1"/>
<feBlend mode="normal" in="SourceGraphic" in2="effect1_dropShadow_0_1" result="shape"/>
</filter>
</defs>
</svg>
