<svg id="visual" viewBox="0 0 1920 1080" width="1920" height="1080" xmlns="http://www.w3.org/2000/svg" xmlns:xlink="http://www.w3.org/1999/xlink" version="1.1"><path d="M0 131L175 131L175 98L349 98L349 120L524 120L524 131L698 131L698 185L873 185L873 66L1047 66L1047 141L1222 141L1222 66L1396 66L1396 77L1571 77L1571 120L1745 120L1745 131L1920 131L1920 174L1920 0L1920 0L1745 0L1745 0L1571 0L1571 0L1396 0L1396 0L1222 0L1222 0L1047 0L1047 0L873 0L873 0L698 0L698 0L524 0L524 0L349 0L349 0L175 0L175 0L0 0Z" fill="#282828"></path><path d="M0 282L175 282L175 282L349 282L349 260L524 260L524 271L698 271L698 357L873 357L873 217L1047 217L1047 314L1222 314L1222 152L1396 152L1396 293L1571 293L1571 249L1745 249L1745 293L1920 293L1920 336L1920 172L1920 129L1745 129L1745 118L1571 118L1571 75L1396 75L1396 64L1222 64L1222 139L1047 139L1047 64L873 64L873 183L698 183L698 129L524 129L524 118L349 118L349 96L175 96L175 129L0 129Z" fill="#242424"></path><path d="M0 530L175 530L175 465L349 465L349 487L524 487L524 714L698 714L698 768L873 768L873 433L1047 433L1047 595L1222 595L1222 368L1396 368L1396 530L1571 530L1571 627L1745 627L1745 606L1920 606L1920 487L1920 334L1920 291L1745 291L1745 247L1571 247L1571 291L1396 291L1396 150L1222 150L1222 312L1047 312L1047 215L873 215L873 355L698 355L698 269L524 269L524 258L349 258L349 280L175 280L175 280L0 280Z" fill="#202020"></path><path d="M0 660L175 660L175 595L349 595L349 692L524 692L524 941L698 941L698 941L873 941L873 692L1047 692L1047 865L1222 865L1222 660L1396 660L1396 800L1571 800L1571 779L1745 779L1745 887L1920 887L1920 746L1920 485L1920 604L1745 604L1745 625L1571 625L1571 528L1396 528L1396 366L1222 366L1222 593L1047 593L1047 431L873 431L873 766L698 766L698 712L524 712L524 485L349 485L349 463L175 463L175 528L0 528Z" fill="#1c1c1c"></path><path d="M0 1081L175 1081L175 1081L349 1081L349 1081L524 1081L524 1081L698 1081L698 1081L873 1081L873 1081L1047 1081L1047 1081L1222 1081L1222 1081L1396 1081L1396 1081L1571 1081L1571 1081L1745 1081L1745 1081L1920 1081L1920 1081L1920 744L1920 885L1745 885L1745 777L1571 777L1571 798L1396 798L1396 658L1222 658L1222 863L1047 863L1047 690L873 690L873 939L698 939L698 939L524 939L524 690L349 690L349 593L175 593L175 658L0 658Z" fill="#181818"></path></svg>