<svg id="visual" viewBox="0 0 1920 1080" width="1920" height="1080" xmlns="http://www.w3.org/2000/svg" xmlns:xlink="http://www.w3.org/1999/xlink" version="1.1"><path d="M0 314L175 314L175 152L349 152L349 293L524 293L524 303L698 303L698 325L873 325L873 228L1047 228L1047 239L1222 239L1222 411L1396 411L1396 303L1571 303L1571 314L1745 314L1745 282L1920 282L1920 325L1920 0L1920 0L1745 0L1745 0L1571 0L1571 0L1396 0L1396 0L1222 0L1222 0L1047 0L1047 0L873 0L873 0L698 0L698 0L524 0L524 0L349 0L349 0L175 0L175 0L0 0Z" fill="#181818"></path><path d="M0 498L175 498L175 303L349 303L349 509L524 509L524 422L698 422L698 465L873 465L873 401L1047 401L1047 357L1222 357L1222 530L1396 530L1396 390L1571 390L1571 498L1745 498L1745 455L1920 455L1920 541L1920 323L1920 280L1745 280L1745 312L1571 312L1571 301L1396 301L1396 409L1222 409L1222 237L1047 237L1047 226L873 226L873 323L698 323L698 301L524 301L524 291L349 291L349 150L175 150L175 312L0 312Z" fill="#1c1c1c"></path><path d="M0 681L175 681L175 465L349 465L349 671L524 671L524 638L698 638L698 779L873 779L873 530L1047 530L1047 606L1222 606L1222 779L1396 779L1396 498L1571 498L1571 595L1745 595L1745 627L1920 627L1920 746L1920 539L1920 453L1745 453L1745 496L1571 496L1571 388L1396 388L1396 528L1222 528L1222 355L1047 355L1047 399L873 399L873 463L698 463L698 420L524 420L524 507L349 507L349 301L175 301L175 496L0 496Z" fill="#202020"></path><path d="M0 919L175 919L175 951L349 951L349 984L524 984L524 919L698 919L698 1016L873 1016L873 919L1047 919L1047 908L1222 908L1222 984L1396 984L1396 951L1571 951L1571 908L1745 908L1745 962L1920 962L1920 941L1920 744L1920 625L1745 625L1745 593L1571 593L1571 496L1396 496L1396 777L1222 777L1222 604L1047 604L1047 528L873 528L873 777L698 777L698 636L524 636L524 669L349 669L349 463L175 463L175 679L0 679Z" fill="#242424"></path><path d="M0 1081L175 1081L175 1081L349 1081L349 1081L524 1081L524 1081L698 1081L698 1081L873 1081L873 1081L1047 1081L1047 1081L1222 1081L1222 1081L1396 1081L1396 1081L1571 1081L1571 1081L1745 1081L1745 1081L1920 1081L1920 1081L1920 939L1920 960L1745 960L1745 906L1571 906L1571 949L1396 949L1396 982L1222 982L1222 906L1047 906L1047 917L873 917L873 1014L698 1014L698 917L524 917L524 982L349 982L349 949L175 949L175 917L0 917Z" fill="#282828"></path></svg>